<mxfile host="app.diagrams.net" agent="Mozilla/5.0 (Windows NT 10.0; Win64; x64) AppleWebKit/537.36 (KHTML, like Gecko) Chrome/134.0.0.0 Safari/537.36 OPR/119.0.0.0" version="28.1.0">
  <diagram name="PÃ¡gina-1" id="6Ji3Ya0P_ZHnLbds0iXC">
    <mxGraphModel dx="1280" dy="528" grid="1" gridSize="10" guides="1" tooltips="1" connect="1" arrows="1" fold="1" page="1" pageScale="1" pageWidth="827" pageHeight="1169" math="0" shadow="0">
      <root>
        <mxCell id="0" />
        <mxCell id="1" parent="0" />
        <mxCell id="LkLkctP59NLOE8MsF7pP-1" value="Crear pedido" style="strokeWidth=2;html=1;shape=mxgraph.flowchart.start_2;whiteSpace=wrap;" vertex="1" parent="1">
          <mxGeometry x="100" y="40" width="120" height="60" as="geometry" />
        </mxCell>
        <mxCell id="LkLkctP59NLOE8MsF7pP-6" style="edgeStyle=orthogonalEdgeStyle;rounded=0;orthogonalLoop=1;jettySize=auto;html=1;exitX=0.5;exitY=1;exitDx=0;exitDy=0;" edge="1" parent="1" source="LkLkctP59NLOE8MsF7pP-2" target="LkLkctP59NLOE8MsF7pP-3">
          <mxGeometry relative="1" as="geometry" />
        </mxCell>
        <mxCell id="LkLkctP59NLOE8MsF7pP-2" value="Clave&lt;div&gt;&amp;nbsp;Cantidad&amp;nbsp;&lt;/div&gt;&lt;div&gt;Usuario&lt;/div&gt;&lt;div&gt;&amp;nbsp;Medico&amp;nbsp;&lt;/div&gt;&lt;div&gt;Servicio&lt;/div&gt;&lt;div&gt;Tipo&lt;/div&gt;&lt;div&gt;Folio&lt;/div&gt;" style="shape=parallelogram;html=1;strokeWidth=2;perimeter=parallelogramPerimeter;whiteSpace=wrap;rounded=1;arcSize=12;size=0.23;" vertex="1" parent="1">
          <mxGeometry x="45" y="120" width="190" height="100" as="geometry" />
        </mxCell>
        <mxCell id="LkLkctP59NLOE8MsF7pP-8" value="" style="edgeStyle=orthogonalEdgeStyle;rounded=0;orthogonalLoop=1;jettySize=auto;html=1;" edge="1" parent="1" source="LkLkctP59NLOE8MsF7pP-3" target="LkLkctP59NLOE8MsF7pP-7">
          <mxGeometry relative="1" as="geometry" />
        </mxCell>
        <mxCell id="LkLkctP59NLOE8MsF7pP-3" value="Generar folio" style="rounded=1;whiteSpace=wrap;html=1;absoluteArcSize=1;arcSize=14;strokeWidth=2;" vertex="1" parent="1">
          <mxGeometry x="75" y="250" width="130" height="60" as="geometry" />
        </mxCell>
        <mxCell id="LkLkctP59NLOE8MsF7pP-5" style="edgeStyle=orthogonalEdgeStyle;rounded=0;orthogonalLoop=1;jettySize=auto;html=1;exitX=0.5;exitY=1;exitDx=0;exitDy=0;exitPerimeter=0;entryX=0.605;entryY=0;entryDx=0;entryDy=0;entryPerimeter=0;" edge="1" parent="1" source="LkLkctP59NLOE8MsF7pP-1" target="LkLkctP59NLOE8MsF7pP-2">
          <mxGeometry relative="1" as="geometry" />
        </mxCell>
        <mxCell id="LkLkctP59NLOE8MsF7pP-11" value="" style="edgeStyle=orthogonalEdgeStyle;rounded=0;orthogonalLoop=1;jettySize=auto;html=1;" edge="1" parent="1" source="LkLkctP59NLOE8MsF7pP-7" target="LkLkctP59NLOE8MsF7pP-10">
          <mxGeometry relative="1" as="geometry" />
        </mxCell>
        <mxCell id="LkLkctP59NLOE8MsF7pP-7" value="Validar usaurio" style="rounded=1;whiteSpace=wrap;html=1;absoluteArcSize=1;arcSize=14;strokeWidth=2;" vertex="1" parent="1">
          <mxGeometry x="75" y="340" width="130" height="60" as="geometry" />
        </mxCell>
        <mxCell id="LkLkctP59NLOE8MsF7pP-16" value="" style="edgeStyle=orthogonalEdgeStyle;rounded=0;orthogonalLoop=1;jettySize=auto;html=1;" edge="1" parent="1" source="LkLkctP59NLOE8MsF7pP-10" target="LkLkctP59NLOE8MsF7pP-14">
          <mxGeometry relative="1" as="geometry" />
        </mxCell>
        <mxCell id="LkLkctP59NLOE8MsF7pP-10" value="Validar Medico" style="rounded=1;whiteSpace=wrap;html=1;absoluteArcSize=1;arcSize=14;strokeWidth=2;" vertex="1" parent="1">
          <mxGeometry x="75" y="430" width="130" height="60" as="geometry" />
        </mxCell>
        <mxCell id="LkLkctP59NLOE8MsF7pP-18" value="" style="edgeStyle=orthogonalEdgeStyle;rounded=0;orthogonalLoop=1;jettySize=auto;html=1;" edge="1" parent="1" source="LkLkctP59NLOE8MsF7pP-14" target="LkLkctP59NLOE8MsF7pP-17">
          <mxGeometry relative="1" as="geometry" />
        </mxCell>
        <mxCell id="LkLkctP59NLOE8MsF7pP-14" value="Validar Claves" style="rounded=1;whiteSpace=wrap;html=1;absoluteArcSize=1;arcSize=14;strokeWidth=2;" vertex="1" parent="1">
          <mxGeometry x="75" y="510" width="130" height="60" as="geometry" />
        </mxCell>
        <mxCell id="LkLkctP59NLOE8MsF7pP-20" value="" style="edgeStyle=orthogonalEdgeStyle;rounded=0;orthogonalLoop=1;jettySize=auto;html=1;" edge="1" parent="1" source="LkLkctP59NLOE8MsF7pP-17" target="LkLkctP59NLOE8MsF7pP-19">
          <mxGeometry relative="1" as="geometry" />
        </mxCell>
        <mxCell id="LkLkctP59NLOE8MsF7pP-17" value="Registrar Pedido" style="rounded=1;whiteSpace=wrap;html=1;absoluteArcSize=1;arcSize=14;strokeWidth=2;" vertex="1" parent="1">
          <mxGeometry x="75" y="600" width="130" height="60" as="geometry" />
        </mxCell>
        <mxCell id="LkLkctP59NLOE8MsF7pP-26" value="" style="edgeStyle=orthogonalEdgeStyle;rounded=0;orthogonalLoop=1;jettySize=auto;html=1;" edge="1" parent="1" source="LkLkctP59NLOE8MsF7pP-19" target="LkLkctP59NLOE8MsF7pP-25">
          <mxGeometry relative="1" as="geometry" />
        </mxCell>
        <mxCell id="LkLkctP59NLOE8MsF7pP-19" value="Registrar Detalles de pedido" style="rounded=1;whiteSpace=wrap;html=1;absoluteArcSize=1;arcSize=14;strokeWidth=2;" vertex="1" parent="1">
          <mxGeometry x="75" y="680" width="130" height="60" as="geometry" />
        </mxCell>
        <mxCell id="LkLkctP59NLOE8MsF7pP-28" value="" style="edgeStyle=orthogonalEdgeStyle;rounded=0;orthogonalLoop=1;jettySize=auto;html=1;" edge="1" parent="1" source="LkLkctP59NLOE8MsF7pP-25" target="LkLkctP59NLOE8MsF7pP-27">
          <mxGeometry relative="1" as="geometry" />
        </mxCell>
        <mxCell id="LkLkctP59NLOE8MsF7pP-25" value="Enviar Correos" style="rounded=1;whiteSpace=wrap;html=1;absoluteArcSize=1;arcSize=14;strokeWidth=2;" vertex="1" parent="1">
          <mxGeometry x="75" y="770" width="130" height="60" as="geometry" />
        </mxCell>
        <mxCell id="LkLkctP59NLOE8MsF7pP-30" value="" style="edgeStyle=orthogonalEdgeStyle;rounded=0;orthogonalLoop=1;jettySize=auto;html=1;" edge="1" parent="1" source="LkLkctP59NLOE8MsF7pP-27" target="LkLkctP59NLOE8MsF7pP-29">
          <mxGeometry relative="1" as="geometry" />
        </mxCell>
        <mxCell id="LkLkctP59NLOE8MsF7pP-27" value="Enviar Pedido a ISSEA" style="rounded=1;whiteSpace=wrap;html=1;absoluteArcSize=1;arcSize=14;strokeWidth=2;" vertex="1" parent="1">
          <mxGeometry x="75" y="860" width="130" height="60" as="geometry" />
        </mxCell>
        <mxCell id="LkLkctP59NLOE8MsF7pP-29" value="fin" style="strokeWidth=2;html=1;shape=mxgraph.flowchart.terminator;whiteSpace=wrap;" vertex="1" parent="1">
          <mxGeometry x="90" y="960" width="100" height="60" as="geometry" />
        </mxCell>
      </root>
    </mxGraphModel>
  </diagram>
</mxfile>
